<svg xmlns="http://www.w3.org/2000/svg" width="496" height="483.61" style=""><rect id="backgroundrect" width="100%" height="100%" x="0" y="0" fill="none" stroke="none"/><!--! Font Awesome Pro 6.1.1 by @fontawesome - https://fontawesome.com License - https://fontawesome.com/license (Commercial License) Copyright 2022 Fonticons, Inc. --><g class="currentLayer" style=""><title>Layer 1</title><path d="M166.29215686917306,397.4 c0,2 -2.3,3.6 -5.2,3.6 c-3.3,0.30000000000000004 -5.6,-1.3 -5.6,-3.6 c0,-2 2.3,-3.6 5.2,-3.6 c3,-0.30000000000000004 5.6,1.3 5.6,3.6 zm-31.1,-4.5 c-0.7000000000000001,2 1.3,4.3 4.3,4.9 c2.6,1 5.6,0 6.2,-2 s-1.3,-4.3 -4.3,-5.2 c-2.6,-0.7000000000000001 -5.5,0.30000000000000004 -6.2,2.3 zm44.2,-1.7000000000000002 c-2.9,0.7000000000000001 -4.9,2.6 -4.6,4.9 c0.30000000000000004,2 2.9,3.3 5.9,2.6 c2.9,-0.7000000000000001 4.9,-2.6 4.6,-4.6 c-0.30000000000000004,-1.9 -3,-3.2 -5.9,-2.9 zM245.19215686917306,8 C106.49215686917304,8 0.3921568691730499,113.3 0.3921568691730499,252 c0,110.9 69.8,205.8 169.5,239.2 c12.8,2.3 17.3,-5.6 17.3,-12.1 c0,-6.2 -0.30000000000000004,-40.4 -0.30000000000000004,-61.4 c0,0 -70,15 -84.7,-29.8 c0,0 -11.4,-29.1 -27.8,-36.6 c0,0 -22.9,-15.7 1.6,-15.4 c0,0 24.9,2 38.6,25.8 c21.9,38.6 58.6,27.5 72.9,20.9 c2.3,-16 8.8,-27.1 16,-33.7 c-55.9,-6.2 -112.3,-14.3 -112.3,-110.5 c0,-27.5 7.6,-41.3 23.6,-58.9 c-2.6,-6.5 -11.1,-33.3 2.6,-67.9 c20.9,-6.5 69,27 69,27 c20,-5.6 41.5,-8.5 62.8,-8.5 s42.8,2.9 62.8,8.5 c0,0 48.1,-33.6 69,-27 c13.7,34.7 5.2,61.4 2.6,67.9 c16,17.7 25.8,31.5 25.8,58.9 c0,96.5 -58.9,104.2 -114.8,110.5 c9.2,7.9 17,22.9 17,46.4 c0,33.7 -0.30000000000000004,75.4 -0.30000000000000004,83.6 c0,6.5 4.6,14.4 17.3,12.1 C428.59215686917304,457.8 496.39215686917305,362.9 496.39215686917305,252 C496.39215686917305,113.3 383.89215686917305,8 245.19215686917306,8 zM97.59215686917305,352.9 c-1.3,1 -1,3.3 0.7000000000000001,5.2 c1.6,1.6 3.9,2.3 5.2,1 c1.3,-1 1,-3.3 -0.7000000000000001,-5.2 c-1.6,-1.6 -3.9,-2.3 -5.2,-1 zm-10.8,-8.1 c-0.7000000000000001,1.3 0.30000000000000004,2.9 2.3,3.9 c1.6,1 3.6,0.7000000000000001 4.3,-0.7000000000000001 c0.7000000000000001,-1.3 -0.30000000000000004,-2.9 -2.3,-3.9 c-2,-0.6000000000000001 -3.6,-0.30000000000000004 -4.3,0.7000000000000001 zm32.4,35.6 c-1.6,1.3 -1,4.3 1.3,6.2 c2.3,2.3 5.2,2.6 6.5,1 c1.3,-1.3 0.7000000000000001,-4.3 -1.3,-6.2 c-2.2,-2.3 -5.2,-2.6 -6.5,-1 zm-11.4,-14.7 c-1.6,1 -1.6,3.6 0,5.9 c1.6,2.3 4.3,3.3 5.6,2.3 c1.6,-1.3 1.6,-3.9 0,-6.2 c-1.4,-2.3 -4,-3.3 -5.6,-2 z" id="svg_1" class="selected" fill="#333333" fill-opacity="1" stroke="none"/></g></svg>